/* XPM */
static char * Unison_xpm[] = {
"206 54 30 1",
" 	c None",
".	c #000000",
"+	c #FFFF00",
"@	c #FFFC00",
"#	c #FFF600",
"$	c #FFED00",
"%	c #FFE400",
"&	c #FFDB00",
"*	c #FFD300",
"=	c #FFCA00",
"-	c #FFC100",
";	c #FFB800",
">	c #FFAF00",
",	c #FFA700",
"'	c #FF9E00",
")	c #FF9500",
"!	c #FF8C00",
"~	c #FF8300",
"{	c #FF7B00",
"]	c #FF7200",
"^	c #FF6900",
"/	c #FF6000",
"(	c #FF5700",
"_	c #FF4F00",
":	c #FF4600",
"<	c #FF3D00",
"[	c #FF3400",
"}	c #FF2B00",
"|	c #FF2300",
"1	c #FF1A00",
"                                                                                                                                                                                                              ",
"                                                                                                                                                                                                              ",
"          .                        .                                                                                                                                                                          ",
"         .+.                      .+.                                                                                                                                                                         ",
"        .+++.                    .+++.                                                                                                                                                                        ",
"       .+++++.                  .+++++.                                                                                                                                                                       ",
"      .+++++++.                .+++++++.                                                  .....                                                                                                               ",
"     .+++++++++.              .+++++++++.                                                .+++++.                                                                                                              ",
"    .+++++++++++.            .+++++++++++.                                              .+++++++.                                                                                                             ",
"   .+++++++++++++.          .+++++++++++++.                                            .+++++++++.                                                                                                            ",
"  .+++++++++++++++.        .+++++++++++++++.                                          .+++++++++++.                                                                                                           ",
"   ..+++++++++++..          ..+++++++++++..                                           .+++++++++++.                                                                                                           ",
"     .+++++++++.              .+++++++++.                                             .+++++++++++.                                                                                                           ",
"     .+++++++++.              .+++++++++.                                             .+++++++++++.                                                                                                           ",
"     .+++++++++.              .+++++++++.                                              .+++++++++.                                                                                                            ",
"     .+++++++++.              .+++++++++.                                              .+++++++++.                                                                                                            ",
"     .+++++++++.              .+++++++++.                                               ..+++++..                                                                                                             ",
"     .+++++++++.              .+++++++++.                                                 .....                                                                                                               ",
"     .+++++++++.              .+++++++++.                                                                                                                                                                     ",
"     .+++++++++.              .+++++++++.             ...         .......                   .....                .........                      ...........                      ...         .......          ",
"     .+++++++++.              .+++++++++.      .......+++.     ...+++++++..           ......+++++.            ...+++++++++..                 ...+++++++++++...            .......+++.     ...+++++++..        ",
"     .+++++++++.              .+++++++++.     .+++++++++++.  ..++++++++++++.         .+++++++++++.          ..++++++++++++++..              .+++++++++++++++++.          .+++++++++++.  ..++++++++++++.       ",
"     .+++++++++.              .+++++++++.    .++++++++++++...+++++++++++++++.       .++++++++++++.         .++++++++++++++++++.           ..+++++++++++++++++++..       .++++++++++++...+++++++++++++++.      ",
"     .+++++++++.              .+++++++++.    .++++++++++++.++++++++++++++++++.      .++++++++++++.        .++++++++.....++++++.          .+++++++++.....+++++++++.      .++++++++++++.++++++++++++++++++.     ",
"     .@@@@@@@@@.              .@@@@@@@@@.     .@@@@@@@@@@@@@@@@@@@@@@@@@@@@@@.       ...@@@@@@@@@.       .@@@@@@@@.     .@@@@@.         .@@@@@@@@@.     .@@@@@@@@@.      .@@@@@@@@@@@@@@@@@@@@@@@@@@@@@@.     ",
"     .#########.              .#########.      ..############......##########.         .#########.       .########.      .####.         .########.       .#########.      ..############......##########.     ",
"     .$$$$$$$$$.              .$$$$$$$$$.       .$$$$$$$$$$$.      .$$$$$$$$$$.        .$$$$$$$$$.      .$$$$$$$$$.       .$$$.        .$$$$$$$$$.        .$$$$$$$$.       .$$$$$$$$$$$.      .$$$$$$$$$$.    ",
"     .%%%%%%%%%.              .%%%%%%%%%.       .%%%%%%%%%%.        .%%%%%%%%%.        .%%%%%%%%%.      .%%%%%%%%%.       .%%%.       .%%%%%%%%%.         .%%%%%%%%%.      .%%%%%%%%%%.        .%%%%%%%%%.    ",
"     .&&&&&&&&&.              .&&&&&&&&&.       .&&&&&&&&&&.        .&&&&&&&&&.        .&&&&&&&&&.      .&&&&&&&&&&.       .&&.       .&&&&&&&&&.         .&&&&&&&&&.      .&&&&&&&&&&.        .&&&&&&&&&.    ",
"     .*********.              .*********.       .*********.         .*********.        .*********.      .***********..     .**.       .*********.         .*********.      .*********.         .*********.    ",
"     .=========.              .=========.       .=========.         .=========.        .=========.      .=============..    ..       .=========.           .=========.     .=========.         .=========.    ",
"     .---------.              .---------.       .---------.         .---------.        .---------.      .---------------...          .---------.           .---------.     .---------.         .---------.    ",
"     .;;;;;;;;;.              .;;;;;;;;;.       .;;;;;;;;;.         .;;;;;;;;;.        .;;;;;;;;;.       .;;;;;;;;;;;;;;;;;..        .;;;;;;;;;.           .;;;;;;;;;.     .;;;;;;;;;.         .;;;;;;;;;.    ",
"     .>>>>>>>>>.              .>>>>>>>>>.       .>>>>>>>>>.         .>>>>>>>>>.        .>>>>>>>>>.       .>>>>>>>>>>>>>>>>>>>.       .>>>>>>>>>.           .>>>>>>>>>.     .>>>>>>>>>.         .>>>>>>>>>.    ",
"     .,,,,,,,,,.              .,,,,,,,,,.       .,,,,,,,,,.         .,,,,,,,,,.        .,,,,,,,,,.        .,,,,,,,,,,,,,,,,,,,.      .,,,,,,,,,.           .,,,,,,,,,.     .,,,,,,,,,.         .,,,,,,,,,.    ",
"     .'''''''''.              .'''''''''.       .'''''''''.         .'''''''''.        .'''''''''.         ..''''''''''''''''''.     .'''''''''.           .'''''''''.     .'''''''''.         .'''''''''.    ",
"     .))))))))).              .))))))))).       .))))))))).         .))))))))).        .))))))))).           .)))))))))))))))))).    .))))))))).           .))))))))).     .))))))))).         .))))))))).    ",
"     .!!!!!!!!!.              .!!!!!!!!!.       .!!!!!!!!!.         .!!!!!!!!!.        .!!!!!!!!!.            ..!!!!!!!!!!!!!!!!.    .!!!!!!!!!.           .!!!!!!!!!.     .!!!!!!!!!.         .!!!!!!!!!.    ",
"     .~~~~~~~~~.              .~~~~~~~~~.       .~~~~~~~~~.         .~~~~~~~~~.        .~~~~~~~~~.       ...    ..~~~~~~~~~~~~~~~.   .~~~~~~~~~.           .~~~~~~~~~.     .~~~~~~~~~.         .~~~~~~~~~.    ",
"     .{{{{{{{{{.              .{{{{{{{{{.       .{{{{{{{{{.         .{{{{{{{{{.        .{{{{{{{{{.      .{{{.     ..{{{{{{{{{{{{{.   .{{{{{{{{{.           .{{{{{{{{{.     .{{{{{{{{{.         .{{{{{{{{{.    ",
"     .]]]]]]]]].              .]]]]]]]]].       .]]]]]]]]].         .]]]]]]]]].        .]]]]]]]]].      .]]].       ..]]]]]]]]]]].    .]]]]]]]].           .]]]]]]]].      .]]]]]]]]].         .]]]]]]]]].    ",
"     .^^^^^^^^^.              .^^^^^^^^.        .^^^^^^^^^.         .^^^^^^^^^.        .^^^^^^^^^.      .^^^^.        .^^^^^^^^^^.    .^^^^^^^^^.         .^^^^^^^^^.      .^^^^^^^^^.         .^^^^^^^^^.    ",
"      ./////////.            ./////////.        ./////////.         ./////////.        ./////////.      .////.         ./////////.    ./////////.         ./////////.      ./////////.         ./////////.    ",
"      .(((((((((.            .(((((((((.        .(((((((((.         .(((((((((.        .(((((((((.      .(((((.        .(((((((((.     .((((((((.         .((((((((.       .(((((((((.         .(((((((((.    ",
"      ._________.           ._________.         ._________.         ._________.        ._________.      .______.       .________.      ._________.       ._________.       ._________.         ._________.    ",
"       .:::::::::.         ..::::::::.          .:::::::::.         .:::::::::.        .:::::::::.      .:::::::.      .::::::::.       .::::::::.       .::::::::.        .:::::::::.         .:::::::::.    ",
"        .<<<<<<<<<..     ..<<<<<<<<<<.        ...<<<<<<<<<....    ...<<<<<<<<<..     ...<<<<<<<<<<...   .<<<<<<<<..   .<<<<<<<<.         .<<<<<<<<..   ..<<<<<<<<.       ...<<<<<<<<<....    ...<<<<<<<<<..   ",
"         .[[[[[[[[[[.....[[[[[[[[[[[.        .[[[[[[[[[[[[[[[[.  .[[[[[[[[[[[[[[.   .[[[[[[[[[[[[[[[[.  .[[[[[[[[[[...[[[[[[[[.           .[[[[[[[[[...[[[[[[[[[.       .[[[[[[[[[[[[[[[[.  .[[[[[[[[[[[[[[.  ",
"          .}}}}}}}}}}}}}}}}}}}}}}}..         .}}}}}}}}}}}}}}}}.  .}}}}}}}}}}}}}}.   .}}}}}}}}}}}}}}}}.   .}}}}}}}}}}}}}}}}}}}.             .}}}}}}}}}}}}}}}}}}}.        .}}}}}}}}}}}}}}}}.  .}}}}}}}}}}}}}}.  ",
"           ..|||||||||||||||||||..           .||||||||||||||||.  .||||||||||||||.   .||||||||||||||||.    ..|||||||||||||||..               ..|||||||||||||||..         .||||||||||||||||.  .||||||||||||||.  ",
"             ....11111111111....              ................    ..............     ................       .....111111....                   ....1111111....            ................    ..............   ",
"                 ...........                                                                                     ......                           .......                                                     ",
"                                                                                                                                                                                                              ",
"                                                                                                                                                                                                              "};
