<?xml version="1.0" encoding="UTF-8"?>
<svg width="207px" height="52px" viewBox="0 0 207 52" version="1.1" xmlns="http://www.w3.org/2000/svg" xmlns:xlink="http://www.w3.org/1999/xlink">
    <title>Unison</title>
    <defs>
        <linearGradient x1="49.9999257%" y1="31.7505524%" x2="49.9999257%" y2="69.6081184%" id="linearGradient-1">
            <stop stop-color="#F9F90A" offset="0%"></stop>
            <stop stop-color="#FF3201" offset="100%"></stop>
        </linearGradient>
    </defs>
    <g id="Page-1" stroke="none" stroke-width="1" fill="none" fill-rule="evenodd">
        <path d="M38.315852,1.168 L30.184852,10.193 C29.889852,10.52 30.121852,11.042 30.561852,11.042 L30.561852,11.042 L32.982852,11.042 C33.262852,11.042 33.490852,11.27 33.490852,11.551 L33.490852,11.551 L33.490852,31.41 C33.490852,34.932 33.099852,37.653 32.317852,39.57 L32.317852,39.57 C31.534852,41.487 30.291852,42.992 28.585852,44.085 L28.585852,44.085 C27.285852,44.919 25.834852,45.425 24.241852,45.623 L24.241852,45.623 C24.190852,45.629 24.136852,45.629 24.085852,45.623 L24.085852,45.623 C22.493852,45.425 21.042852,44.919 19.742852,44.085 L19.742852,44.085 C18.035852,42.992 16.792852,41.487 16.010852,39.57 L16.010852,39.57 C15.227852,37.653 14.836852,34.932 14.836852,31.41 L14.836852,31.41 L14.836852,11.551 C14.836852,11.27 15.063852,11.042 15.345852,11.042 L15.345852,11.042 L17.764852,11.042 C18.205852,11.042 18.437852,10.52 18.142852,10.193 L18.142852,10.193 L10.012852,1.168 C9.80985201,0.944 9.45785201,0.944 9.25685201,1.169 L9.25685201,1.169 L1.13185201,10.193 C0.836852007,10.521 1.06985201,11.042 1.50985201,11.042 L1.50985201,11.042 L3.92985201,11.042 C4.20985201,11.042 4.43785201,11.27 4.43785201,11.551 L4.43785201,11.551 L4.43185201,31.41 C4.44985201,32.987 4.52485201,34.353 4.66485201,35.557 L4.66485201,35.557 C4.82485201,36.939 5.06585201,38.21 5.38785201,39.369 L5.38785201,39.369 C6.42985201,42.938 8.33685201,45.657 11.104852,47.529 L11.104852,47.529 C12.829852,48.734 14.776852,49.627 16.943852,50.205 L16.943852,50.205 C19.109852,50.785 21.516852,51.075 24.163852,51.075 L24.163852,51.075 C26.810852,51.075 29.218852,50.785 31.383852,50.205 L31.383852,50.205 C33.550852,49.627 35.497852,48.734 37.222852,47.529 L37.222852,47.529 C39.991852,45.657 41.897852,42.938 42.940852,39.369 L42.940852,39.369 C43.262852,38.21 43.503852,36.939 43.663852,35.557 L43.663852,35.557 C43.802852,34.353 43.877852,32.987 43.895852,31.41 L43.895852,31.41 L43.890852,11.551 C43.889852,11.27 44.116852,11.042 44.398852,11.042 L44.398852,11.042 L46.817852,11.042 C47.258852,11.042 47.491852,10.521 47.195852,10.193 L47.195852,10.193 L39.070852,1.169 C38.969852,1.056 38.831852,1 38.692852,1 L38.692852,1 C38.554852,1 38.416852,1.056 38.315852,1.168 L38.315852,1.168 Z M90.934852,5.122 C89.810852,6.193 89.249852,7.464 89.249852,8.935 L89.249852,8.935 C89.249852,10.362 89.810852,11.588 90.934852,12.613 L90.934852,12.613 C92.058852,13.64 93.362852,14.152 94.848852,14.152 L94.848852,14.152 C96.493852,14.152 97.846852,13.662 98.909852,12.681 L98.909852,12.681 C99.973852,11.7 100.505852,10.473 100.505852,9.002 L100.505852,9.002 C100.505852,7.396 99.983852,6.082 98.941852,5.055 L98.941852,5.055 C97.896852,4.03 96.593852,3.516 95.028852,3.516 L95.028852,3.516 C93.422852,3.516 92.058852,4.052 90.934852,5.122 L90.934852,5.122 Z M186.230852,19.218 C185.464852,19.703 184.821852,20.187 184.298852,20.671 L184.298852,20.671 C183.775852,21.154 183.152852,21.881 182.427852,22.848 L182.427852,22.848 L182.427852,21.263 C182.427852,20.34 182.146852,19.505 181.584852,18.756 L181.584852,18.756 C181.302852,18.405 181.061852,18.174 180.862852,18.063 L180.862852,18.063 C180.660852,17.953 180.440852,17.898 180.199852,17.898 L180.199852,17.898 L178.936852,18.164 L171.770852,20.969 C170.645852,21.503 170.084852,22.238 170.084852,23.172 L170.084852,23.172 C170.084852,24.062 170.593852,24.729 171.617852,25.175 L171.617852,25.175 C172.761852,25.53 173.334852,26.509 173.334852,28.111 L173.334852,28.111 L173.334852,43.13 C173.334852,44.643 172.752852,45.667 171.589852,46.201 L171.589852,46.201 C170.584852,46.603 170.084852,47.27 170.084852,48.204 L170.084852,48.204 C170.084852,49.494 170.783852,50.139 172.183852,50.139 L172.183852,50.139 L184.235852,50.139 C185.474852,50.139 186.094852,49.494 186.094852,48.205 L186.094852,48.205 C186.094852,47.226 185.592852,46.559 184.589852,46.202 L184.589852,46.202 C184.147852,46.024 183.856852,45.836 183.716852,45.635 L183.716852,45.635 C183.576852,45.435 183.465852,45.125 183.385852,44.702 L183.385852,44.702 C183.305852,44.28 183.265852,43.802 183.265852,43.267 L183.265852,43.267 L183.265852,28.921 C183.265852,27.543 183.854852,26.297 185.031852,25.185 L185.031852,25.185 C186.208852,24.073 187.508852,23.517 188.930852,23.517 L188.930852,23.517 C190.554852,23.517 191.752852,24.14 192.524852,25.385 L192.524852,25.385 C192.889852,26.052 193.131852,26.675 193.254852,27.254 L193.254852,27.254 C193.377852,27.832 193.437852,28.856 193.437852,30.323 L193.437852,30.323 L193.437852,33.392 L193.437852,37.996 C193.437852,39.596 193.417852,40.921 193.377852,41.966 L193.377852,41.966 C193.337852,43.011 193.296852,43.867 193.256852,44.535 L193.256852,44.535 C193.137852,45.335 192.644852,45.902 191.782852,46.236 L191.782852,46.236 C190.919852,46.57 190.489852,47.226 190.489852,48.205 L190.489852,48.205 C190.489852,49.494 191.170852,50.139 192.535852,50.139 L192.535852,50.139 L204.392852,50.139 C205.033852,50.139 205.545852,49.962 205.927852,49.605 L205.927852,49.605 C206.308852,49.25 206.499852,48.783 206.499852,48.204 L206.499852,48.204 C206.499852,47.27 206.065852,46.624 205.199852,46.268 L205.199852,46.268 C204.333852,45.912 203.811852,45.468 203.633852,44.933 L203.633852,44.933 C203.457852,44.399 203.369852,43.086 203.369852,40.994 L203.369852,40.994 L203.369852,38.591 L203.369852,35.588 C203.369852,31.494 203.268852,28.657 203.067852,27.077 L203.067852,27.077 C202.866852,25.496 202.462852,24.083 201.860852,22.837 L201.860852,22.837 C200.049852,19.545 196.689852,17.898 191.781852,17.898 L191.781852,17.898 C189.729852,17.898 187.880852,18.338 186.230852,19.218 L186.230852,19.218 Z M140.170852,22.562 C137.041852,25.671 135.475852,29.602 135.475852,34.353 L135.475852,34.353 C135.475852,39.195 136.999852,43.17 140.049852,46.278 L140.049852,46.278 C143.099852,49.387 147.031852,50.942 151.847852,50.942 L151.847852,50.942 C156.622852,50.942 160.554852,49.387 163.645852,46.278 L163.645852,46.278 C166.733852,43.17 168.279852,39.217 168.279852,34.42 L168.279852,34.42 C168.279852,29.623 166.733852,25.671 163.645852,22.562 L163.645852,22.562 C160.554852,19.453 156.662852,17.898 151.967852,17.898 L151.967852,17.898 C147.232852,17.898 143.300852,19.453 140.170852,22.562 L140.170852,22.562 Z M146.701852,43.301 C145.476852,41.195 144.865852,38.235 144.865852,34.42 L144.865852,34.42 C144.865852,30.606 145.476852,27.646 146.701852,25.539 L146.701852,25.539 C147.924852,23.433 149.640852,22.38 151.847852,22.38 L151.847852,22.38 C154.093852,22.38 155.840852,23.445 157.084852,25.572 L157.084852,25.572 C158.326852,27.702 158.949852,30.628 158.949852,34.353 L158.949852,34.353 C158.949852,38.168 158.326852,41.14 157.084852,43.267 L157.084852,43.267 C155.840852,45.397 154.093852,46.46 151.847852,46.46 L151.847852,46.46 C149.640852,46.46 147.924852,45.408 146.701852,43.301 L146.701852,43.301 Z M109.172852,22.359 C107.728852,24.223 107.006852,26.354 107.006852,28.75 L107.006852,28.75 C107.006852,30.171 107.276852,31.381 107.818852,32.379 L107.818852,32.379 C108.359852,33.378 109.312852,34.431 110.677852,35.542 L110.677852,35.542 C111.881852,36.385 113.025852,36.962 114.109852,37.272 L114.109852,37.272 L119.044852,38.604 C119.925852,38.871 120.549852,39.091 120.909852,39.27 L120.909852,39.27 C121.270852,39.447 121.591852,39.692 121.873852,40.001 L121.873852,40.001 C122.514852,40.579 122.836852,41.378 122.836852,42.399 L122.836852,42.399 C122.836852,43.509 122.354852,44.44 121.391852,45.195 L121.391852,45.195 C120.428852,45.949 119.264852,46.326 117.900852,46.326 L117.900852,46.326 C115.531852,46.326 113.587852,45.269 112.062852,43.151 L112.062852,43.151 L110.737852,41.365 C110.496852,41.101 110.265852,40.902 110.045852,40.769 L110.045852,40.769 C109.825852,40.637 109.614852,40.527 109.413852,40.44 L109.413852,40.44 L108.450852,40.306 C107.728852,40.306 107.126852,40.594 106.644852,41.17 L106.644852,41.17 C106.163852,41.748 105.922852,42.456 105.922852,43.298 L105.922852,43.298 C105.922852,45.38 107.206852,47.175 109.774852,48.683 L109.774852,48.683 C112.342852,50.188 115.351852,50.942 118.803852,50.942 L118.803852,50.942 C122.776852,50.942 126.116852,49.854 128.824852,47.68 L128.824852,47.68 C131.533852,45.505 132.888852,42.82 132.888852,39.624 L132.888852,39.624 C132.888852,37.582 131.799852,35.606 129.758852,33.565 L129.758852,33.565 C129.391852,33.197 128.167852,32.091 126.567852,31.501 L126.567852,31.501 L121.451852,29.97 C120.166852,29.659 119.234852,29.315 118.653852,28.938 L118.653852,28.938 C118.069852,28.561 117.629852,28.051 117.329852,27.407 L117.329852,27.407 C117.027852,26.763 116.877852,26.22 116.877852,25.776 L116.877852,25.776 C116.877852,23.511 118.221852,22.38 120.909852,22.38 L120.909852,22.38 C123.757852,22.38 125.865852,23.658 127.230852,26.214 L127.230852,26.214 C127.630852,26.92 128.012852,27.405 128.374852,27.669 L128.374852,27.669 C128.734852,27.934 129.215852,28.065 129.817852,28.065 L129.817852,28.065 C131.101852,28.065 131.744852,27.313 131.744852,25.805 L131.744852,25.805 C131.744852,23.016 131.322852,21.309 130.479852,20.688 L130.479852,20.688 C129.355852,19.803 127.891852,19.117 126.086852,18.63 L126.086852,18.63 C124.280852,18.143 122.393852,17.898 120.428852,17.898 L120.428852,17.898 C115.211852,17.898 111.460852,19.385 109.172852,22.359 L109.172852,22.359 Z M96.652852,18.099 L88.768852,20.909 C87.644852,21.354 87.082852,22.09 87.082852,23.115 L87.082852,23.115 C87.082852,24.008 87.585852,24.677 88.587852,25.122 L88.587852,25.122 C89.710852,25.48 90.273852,26.483 90.273852,28.133 L90.273852,28.133 L90.273852,43.049 C90.273852,43.986 90.152852,44.678 89.912852,45.122 L89.912852,45.122 C89.671852,45.569 89.139852,45.958 88.316852,46.293 L88.316852,46.293 C87.494852,46.628 87.082852,47.262 87.082852,48.199 L87.082852,48.199 C87.082852,49.493 87.784852,50.139 89.189852,50.139 L89.189852,50.139 L101.288852,50.139 C101.929852,50.139 102.441852,49.962 102.823852,49.604 L102.823852,49.604 C103.203852,49.248 103.394852,48.779 103.394852,48.199 L103.394852,48.199 C103.394852,47.262 102.963852,46.628 102.100852,46.293 L102.100852,46.293 C101.236852,45.958 100.706852,45.58 100.505852,45.156 L100.505852,45.156 C100.304852,44.733 100.204852,44.008 100.204852,42.982 L100.204852,42.982 L100.204852,22.982 C100.204852,19.594 99.441852,17.898 97.917852,17.898 L97.917852,17.898 L96.652852,18.099 Z M63.865852,19.218 C63.098852,19.703 62.456852,20.187 61.933852,20.671 L61.933852,20.671 C61.410852,21.154 60.787852,21.881 60.063852,22.848 L60.063852,22.848 L60.063852,21.263 C60.063852,20.34 59.781852,19.505 59.219852,18.756 L59.219852,18.756 C58.938852,18.405 58.696852,18.174 58.496852,18.063 L58.496852,18.063 C58.295852,17.953 58.075852,17.898 57.834852,17.898 L57.834852,17.898 L56.570852,18.164 L49.405852,20.969 C48.280852,21.503 47.718852,22.238 47.718852,23.172 L47.718852,23.172 C47.718852,24.062 48.229852,24.729 49.252852,25.175 L49.252852,25.175 C50.396852,25.53 50.969852,26.509 50.969852,28.111 L50.969852,28.111 L50.969852,43.13 C50.969852,44.643 50.387852,45.667 49.223852,46.201 L49.223852,46.201 C48.220852,46.603 47.718852,47.27 47.718852,48.204 L47.718852,48.204 C47.718852,49.494 48.418852,50.139 49.817852,50.139 L49.817852,50.139 L61.871852,50.139 C63.110852,50.139 63.729852,49.494 63.729852,48.205 L63.729852,48.205 C63.729852,47.226 63.227852,46.559 62.224852,46.202 L62.224852,46.202 C61.783852,46.024 61.492852,45.836 61.351852,45.635 L61.351852,45.635 C61.210852,45.435 61.101852,45.125 61.020852,44.702 L61.020852,44.702 C60.940852,44.28 60.901852,43.802 60.901852,43.267 L60.901852,43.267 L60.901852,28.921 C60.901852,27.543 61.489852,26.297 62.666852,25.185 L62.666852,25.185 C63.844852,24.073 65.143852,23.517 66.564852,23.517 L66.564852,23.517 C68.190852,23.517 69.388852,24.14 70.160852,25.385 L70.160852,25.385 C70.524852,26.052 70.766852,26.675 70.889852,27.254 L70.889852,27.254 C71.011852,27.832 71.072852,28.856 71.072852,30.323 L71.072852,30.323 L71.072852,33.392 L71.072852,37.996 C71.072852,39.596 71.052852,40.921 71.012852,41.966 L71.012852,41.966 C70.972852,43.011 70.932852,43.867 70.891852,44.535 L70.891852,44.535 C70.772852,45.335 70.279852,45.902 69.417852,46.236 L69.417852,46.236 C68.554852,46.57 68.123852,47.226 68.123852,48.205 L68.123852,48.205 C68.123852,49.494 68.804852,50.139 70.170852,50.139 L70.170852,50.139 L82.027852,50.139 C82.669852,50.139 83.180852,49.962 83.562852,49.605 L83.562852,49.605 C83.942852,49.25 84.133852,48.783 84.133852,48.204 L84.133852,48.204 C84.133852,47.27 83.700852,46.624 82.834852,46.268 L82.834852,46.268 C81.968852,45.912 81.446852,45.468 81.269852,44.933 L81.269852,44.933 C81.092852,44.399 81.004852,43.086 81.004852,40.994 L81.004852,40.994 L81.004852,38.591 L81.004852,35.588 C81.004852,31.494 80.903852,28.657 80.701852,27.077 L80.701852,27.077 C80.501852,25.496 80.098852,24.083 79.494852,22.837 L79.494852,22.837 C77.684852,19.545 74.325852,17.898 69.416852,17.898 L69.416852,17.898 C67.364852,17.898 65.514852,18.338 63.865852,19.218 L63.865852,19.218 Z" id="Unison" stroke="#000000" fill="url(#linearGradient-1)"></path>
    </g>
</svg>