/* XPM */
static char * failure_xpm[] = {
"14 14 2 1",
" 	c #FFFFFFFFFFFF",
".	c #FFFF08205144",
"  .        .  ",
" ...      ..  ",
"  ...    ...  ",
"   ..    ..   ",
"    ..  ..    ",
"    .....     ",
"     ....     ",
"     ...      ",
"    .....     ",
"    .. ..     ",
"   ..   ..    ",
"  ..    ...   ",
" ...     ..   ",
"...           "};
