/* XPM */
static char * U_32x32x256_xpm[] = {
"32 32 257 2",
"  	c None",
". 	c #FFFFFF",
"+ 	c #FFFFCC",
"@ 	c #FFFF99",
"# 	c #FFFF66",
"$ 	c #FFFF33",
"% 	c #FFFF00",
"& 	c #FFCCFF",
"* 	c #FFCCCC",
"= 	c #FFCC99",
"- 	c #FFCC66",
"; 	c #FFCC33",
"> 	c #FFCC00",
", 	c #FF99FF",
"' 	c #FF99CC",
") 	c #FF9999",
"! 	c #FF9966",
"~ 	c #FF9933",
"{ 	c #FF9900",
"] 	c #FF66FF",
"^ 	c #FF66CC",
"/ 	c #FF6699",
"( 	c #FF6666",
"_ 	c #FF6633",
": 	c #FF6600",
"< 	c #FF33FF",
"[ 	c #FF33CC",
"} 	c #FF3399",
"| 	c #FF3366",
"1 	c #FF3333",
"2 	c #FF3300",
"3 	c #FF00FF",
"4 	c #FF00CC",
"5 	c #FF0099",
"6 	c #FF0066",
"7 	c #FF0033",
"8 	c #FF0000",
"9 	c #CCFFFF",
"0 	c #CCFFCC",
"a 	c #CCFF99",
"b 	c #CCFF66",
"c 	c #CCFF33",
"d 	c #CCFF00",
"e 	c #CCCCFF",
"f 	c #CCCCCC",
"g 	c #CCCC99",
"h 	c #CCCC66",
"i 	c #CCCC33",
"j 	c #CCCC00",
"k 	c #CC99FF",
"l 	c #CC99CC",
"m 	c #CC9999",
"n 	c #CC9966",
"o 	c #CC9933",
"p 	c #CC9900",
"q 	c #CC66FF",
"r 	c #CC66CC",
"s 	c #CC6699",
"t 	c #CC6666",
"u 	c #CC6633",
"v 	c #CC6600",
"w 	c #CC33FF",
"x 	c #CC33CC",
"y 	c #CC3399",
"z 	c #CC3366",
"A 	c #CC3333",
"B 	c #CC3300",
"C 	c #CC00FF",
"D 	c #CC00CC",
"E 	c #CC0099",
"F 	c #CC0066",
"G 	c #CC0033",
"H 	c #CC0000",
"I 	c #99FFFF",
"J 	c #99FFCC",
"K 	c #99FF99",
"L 	c #99FF66",
"M 	c #99FF33",
"N 	c #99FF00",
"O 	c #99CCFF",
"P 	c #99CCCC",
"Q 	c #99CC99",
"R 	c #99CC66",
"S 	c #99CC33",
"T 	c #99CC00",
"U 	c #9999FF",
"V 	c #9999CC",
"W 	c #999999",
"X 	c #999966",
"Y 	c #999933",
"Z 	c #999900",
"` 	c #9966FF",
" .	c #9966CC",
"..	c #996699",
"+.	c #996666",
"@.	c #996633",
"#.	c #996600",
"$.	c #9933FF",
"%.	c #9933CC",
"&.	c #993399",
"*.	c #993366",
"=.	c #993333",
"-.	c #993300",
";.	c #9900FF",
">.	c #9900CC",
",.	c #990099",
"'.	c #990066",
").	c #990033",
"!.	c #990000",
"~.	c #66FFFF",
"{.	c #66FFCC",
"].	c #66FF99",
"^.	c #66FF66",
"/.	c #66FF33",
"(.	c #66FF00",
"_.	c #66CCFF",
":.	c #66CCCC",
"<.	c #66CC99",
"[.	c #66CC66",
"}.	c #66CC33",
"|.	c #66CC00",
"1.	c #6699FF",
"2.	c #6699CC",
"3.	c #669999",
"4.	c #669966",
"5.	c #669933",
"6.	c #669900",
"7.	c #6666FF",
"8.	c #6666CC",
"9.	c #666699",
"0.	c #666666",
"a.	c #666633",
"b.	c #666600",
"c.	c #6633FF",
"d.	c #6633CC",
"e.	c #663399",
"f.	c #663366",
"g.	c #663333",
"h.	c #663300",
"i.	c #6600FF",
"j.	c #6600CC",
"k.	c #660099",
"l.	c #660066",
"m.	c #660033",
"n.	c #660000",
"o.	c #33FFFF",
"p.	c #33FFCC",
"q.	c #33FF99",
"r.	c #33FF66",
"s.	c #33FF33",
"t.	c #33FF00",
"u.	c #33CCFF",
"v.	c #33CCCC",
"w.	c #33CC99",
"x.	c #33CC66",
"y.	c #33CC33",
"z.	c #33CC00",
"A.	c #3399FF",
"B.	c #3399CC",
"C.	c #339999",
"D.	c #339966",
"E.	c #339933",
"F.	c #339900",
"G.	c #3366FF",
"H.	c #3366CC",
"I.	c #336699",
"J.	c #336666",
"K.	c #336633",
"L.	c #336600",
"M.	c #3333FF",
"N.	c #3333CC",
"O.	c #333399",
"P.	c #333366",
"Q.	c #333333",
"R.	c #333300",
"S.	c #3300FF",
"T.	c #3300CC",
"U.	c #330099",
"V.	c #330066",
"W.	c #330033",
"X.	c #330000",
"Y.	c #00FFFF",
"Z.	c #00FFCC",
"`.	c #00FF99",
" +	c #00FF66",
".+	c #00FF33",
"++	c #00FF00",
"@+	c #00CCFF",
"#+	c #00CCCC",
"$+	c #00CC99",
"%+	c #00CC66",
"&+	c #00CC33",
"*+	c #00CC00",
"=+	c #0099FF",
"-+	c #0099CC",
";+	c #009999",
">+	c #009966",
",+	c #009933",
"'+	c #009900",
")+	c #0066FF",
"!+	c #0066CC",
"~+	c #006699",
"{+	c #006666",
"]+	c #006633",
"^+	c #006600",
"/+	c #0033FF",
"(+	c #0033CC",
"_+	c #003399",
":+	c #003366",
"<+	c #003333",
"[+	c #003300",
"}+	c #0000FF",
"|+	c #0000CC",
"1+	c #000099",
"2+	c #000066",
"3+	c #000033",
"4+	c #000000",
"5+	c #FF99FF",
"6+	c #00CCFF",
"7+	c #33CCFF",
"8+	c #66CCFF",
"9+	c #99CCFF",
"0+	c #CCCCFF",
"a+	c #FFCCFF",
"b+	c #33FFFF",
"c+	c #66FFCC",
"d+	c #99FFFF",
"e+	c #CCFFFF",
"f+	c #FF6666",
"g+	c #66FF66",
"h+	c #FFFF66",
"i+	c #6666FF",
"j+	c #FF66FF",
"k+	c #66FFFF",
"l+	c #A50021",
"m+	c #5F5F5F",
"n+	c #777777",
"o+	c #868686",
"p+	c #969696",
"q+	c #CBCBCB",
"r+	c #B2B2B2",
"s+	c #D7D7D7",
"t+	c #DDDDDD",
"u+	c #E3E3E3",
"v+	c #EAEAEA",
"w+	c #F1F1F1",
"x+	c #F8F8F8",
"y+	c #FFFBF0",
"z+	c #A0A0A4",
"A+	c #808080",
"B+	c #FF0000",
"C+	c #00FF00",
"D+	c #FFFF00",
"E+	c #0000FF",
"F+	c #FF00FF",
"G+	c #00FFFF",
"H+	c #FFFFFF",
". . . . . . . . 4+. . . . . . . . . . . . . . 4+. . . . . . . . ",
". . . . . . . 4+% 4+. . . . . . . . . . . . 4+% 4+. . . . . . . ",
". . . . . . 4+% % % 4+. . . . . . . . . . 4+% % % 4+. . . . . . ",
". . . . . 4+% % % % % 4+. . . . . . . . 4+% % % % % 4+. . . . . ",
". . . . 4+% % % % % % % 4+. . . . . . 4+% % % % % % % 4+. . . . ",
". . . 4+% % % % % % % % % 4+. . . . 4+% % % % % % % % % 4+. . . ",
". . . . 4+4+> % % > % 4+4+. . . . . . 4+4+% > % % > 4+4+. . . . ",
". . . . . 4+% > % > % 4+. . . . . . . . 4+% > % > % 4+. . . . . ",
". . . . . 4+> % > % > 4+. . . . . . . . 4+> % > % > 4+. . . . . ",
". . . . . 4+> > > > > 4+. . . . . . . . 4+> > > > > 4+. . . . . ",
". . . . . 4+> > > > > 4+. . . . . . . . 4+> > > > > 4+. . . . . ",
". . . . . 4+> > > > > 4+. . . . . . . . 4+> > > > > 4+. . . . . ",
". . . . . 4+{ > { > { 4+. . . . . . . . 4+{ > { > { 4+. . . . . ",
". . . . . 4+> { > { > 4+. . . . . . . . 4+> { > { > 4+. . . . . ",
". . . . . 4+{ > { > { 4+. . . . . . . . 4+{ > { > { 4+. . . . . ",
". . . . . 4+{ { { { { 4+. . . . . . . . 4+{ { { { { 4+. . . . . ",
". . . . . 4+{ { { { { 4+. . . . . . . . 4+{ { { { { 4+. . . . . ",
". . . . . 4+{ { { { { 4+. . . . . . . . 4+{ { { { { 4+. . . . . ",
". . . . . 4+{ { { { { 4+. . . . . . . . 4+{ { { { { 4+. . . . . ",
". . . . . 4+{ : { : { 4+. . . . . . . . 4+{ : { : { 4+. . . . . ",
". . . . . 4+: { : { : 4+. . . . . . . . 4+: { : { : 4+. . . . . ",
". . . . . 4+: : : : : 4+. . . . . . . . 4+: : : : : 4+. . . . . ",
". . . . . 4+: : : : : 4+. . . . . . . . 4+: : : : : 4+. . . . . ",
". . . . . 4+: : : : : 4+. . . . . . . . 4+: : : : : 4+. . . . . ",
". . . . . 4+: 8 : 8 : : 4+. . . . . . 4+: : 8 : 8 : 4+. . . . . ",
". . . . . . 8 : 8 : 8 : 4+. . . . . . 4+: 8 : 8 : 8 . . . . . . ",
". . . . . . 4+8 8 8 8 8 8 4+4+4+4+4+4+8 8 8 8 8 8 4+. . . . . . ",
". . . . . . . 8 8 8 8 8 8 8 8 8 8 8 8 8 8 8 8 8 8 . . . . . . . ",
". . . . . . . 4+8 8 8 8 8 8 8 8 8 8 8 8 8 8 8 8 4+. . . . . . . ",
". . . . . . . . 4+8 8 8 8 8 8 8 8 8 8 8 8 8 8 4+. . . . . . . . ",
". . . . . . . . . . 4+4+4+4+4+4+4+4+4+4+4+4+. . . . . . . . . . ",
". . . . . . . . . . . . . . . . . . . . . . . . . . . . . . . . "};
